<svg width="30" height="30" viewBox="0 0 30 30" fill="none" xmlns="http://www.w3.org/2000/svg">
<path d="M8.75 8.12502V5.625C8.75 4.93464 9.30963 4.375 10 4.375H26.25C26.9404 4.375 27.5 4.93464 27.5 5.625V16.875C27.5 17.5654 26.9404 18.125 26.25 18.125H25" stroke="#2F2F2F" stroke-width="2" stroke-linejoin="round"/>
<path d="M20 11.875H3.75C3.05965 11.875 2.5 12.4346 2.5 13.125V24.375C2.5 25.0653 3.05965 25.625 3.75 25.625H20C20.6904 25.625 21.25 25.0653 21.25 24.375V13.125C21.25 12.4346 20.6904 11.875 20 11.875Z" stroke="#2F2F2F" stroke-width="2" stroke-linecap="round" stroke-linejoin="round"/>
<path d="M2.5 17.5H21.25" stroke="#2F2F2F" stroke-width="2" stroke-linecap="round" stroke-linejoin="round"/>
<path d="M21.25 14.375V21.875" stroke="#2F2F2F" stroke-width="2" stroke-linecap="round" stroke-linejoin="round"/>
<path d="M2.5 14.375V21.875" stroke="#2F2F2F" stroke-width="2" stroke-linecap="round" stroke-linejoin="round"/>
<path d="M6.875 21.25H11.875" stroke="#2F2F2F" stroke-width="2" stroke-linecap="round" stroke-linejoin="round"/>
<path d="M15.625 21.25H16.875" stroke="#2F2F2F" stroke-width="2" stroke-linecap="round" stroke-linejoin="round"/>
</svg>
