<svg width="46" height="46" viewBox="0 0 46 46" fill="none" xmlns="http://www.w3.org/2000/svg">
<path d="M13.417 12.4584V8.62504C13.417 7.56648 14.2751 6.70837 15.3337 6.70837H40.2503C41.3089 6.70837 42.167 7.56648 42.167 8.62504V25.875C42.167 26.9336 41.3089 27.7917 40.2503 27.7917H38.3337" stroke="white" stroke-width="3" stroke-linecap="round" stroke-linejoin="round"/>
<path d="M30.6663 18.2084H5.74967C4.69114 18.2084 3.83301 19.0665 3.83301 20.125V37.375C3.83301 38.4336 4.69114 39.2917 5.74967 39.2917H30.6663C31.7249 39.2917 32.583 38.4336 32.583 37.375V20.125C32.583 19.0665 31.7249 18.2084 30.6663 18.2084Z" stroke="white" stroke-width="3" stroke-linecap="round" stroke-linejoin="round"/>
<path d="M3.83301 26.8334H32.583" stroke="white" stroke-width="3" stroke-linecap="round" stroke-linejoin="round"/>
<path d="M32.583 22.0416V33.5416" stroke="white" stroke-width="3" stroke-linecap="round" stroke-linejoin="round"/>
<path d="M3.83301 22.0416V33.5416" stroke="white" stroke-width="3" stroke-linecap="round" stroke-linejoin="round"/>
<path d="M10.542 32.5834H18.2087" stroke="white" stroke-width="3" stroke-linecap="round" stroke-linejoin="round"/>
<path d="M23.958 32.5834H25.8747" stroke="white" stroke-width="3" stroke-linecap="round" stroke-linejoin="round"/>
</svg>
