<svg width="30" height="30" viewBox="0 0 30 30" fill="none" xmlns="http://www.w3.org/2000/svg">
<path d="M15 2.8125C12.4255 2.8125 10.3125 4.92554 10.3125 7.5V8.4375H5.68361L5.62501 9.3164L4.68751 26.1914L4.62891 27.1875H25.3711L25.3125 26.1914L24.375 9.3164L24.3164 8.4375H19.6875V7.5C19.6875 4.92554 17.5745 2.8125 15 2.8125ZM15 4.6875C16.5528 4.6875 17.8125 5.94726 17.8125 7.5V8.4375H12.1875V7.5C12.1875 5.94726 13.4473 4.6875 15 4.6875ZM7.44141 10.3125H10.3125V13.125H12.1875V10.3125H17.8125V13.125H19.6875V10.3125H22.5586L23.3789 25.3125H6.62111L7.44141 10.3125Z" fill="#2F2F2F"/>
</svg>
