<svg width="48" height="48" viewBox="0 0 48 48" fill="none" xmlns="http://www.w3.org/2000/svg">
<path d="M12.375 10.75C12.375 9.81802 13.1305 9.0625 14.0625 9.0625H30C30.932 9.0625 31.6875 9.81802 31.6875 10.75C31.6875 11.682 30.932 12.4375 30 12.4375H14.0625C13.1305 12.4375 12.375 11.682 12.375 10.75Z" fill="#2F2F2F"/>
<path d="M18.75 18.8125C18.75 17.8805 19.5055 17.125 20.4375 17.125H30C30.932 17.125 31.6875 17.8805 31.6875 18.8125C31.6875 19.7445 30.932 20.5 30 20.5H20.4375C19.5055 20.5 18.75 19.7445 18.75 18.8125Z" fill="#2F2F2F"/>
<path d="M15.75 18.8125C15.75 19.7445 14.9945 20.5 14.0625 20.5C13.1305 20.5 12.375 19.7445 12.375 18.8125C12.375 17.8805 13.1305 17.125 14.0625 17.125C14.9945 17.125 15.75 17.8805 15.75 18.8125Z" fill="#2F2F2F"/>
<path d="M15.75 25.1875C15.75 26.1195 14.9945 26.875 14.0625 26.875C13.1305 26.875 12.375 26.1195 12.375 25.1875C12.375 24.2555 13.1305 23.5 14.0625 23.5C14.9945 23.5 15.75 24.2555 15.75 25.1875Z" fill="#2F2F2F"/>
<path d="M15.75 31.5625C15.75 32.4945 14.9945 33.25 14.0625 33.25C13.1305 33.25 12.375 32.4945 12.375 31.5625C12.375 30.6305 13.1305 29.875 14.0625 29.875C14.9945 29.875 15.75 30.6305 15.75 31.5625Z" fill="#2F2F2F"/>
<path d="M34.8 38.275L32.3812 35.8563C32.175 35.65 31.9125 35.5469 31.5938 35.5469C31.275 35.5469 31.0125 35.65 30.8063 35.8563C30.6 36.0625 30.4969 36.325 30.4969 36.6438C30.4969 36.9625 30.6 37.225 30.8063 37.4313L34.0125 40.6375C34.2375 40.8625 34.5 40.975 34.8 40.975C35.1 40.975 35.3625 40.8625 35.5875 40.6375L41.9437 34.2812C42.15 34.075 42.2531 33.8125 42.2531 33.4938C42.2531 33.175 42.15 32.9125 41.9437 32.7063C41.7375 32.5 41.475 32.3969 41.1562 32.3969C40.8375 32.3969 40.575 32.5 40.3688 32.7063L34.8 38.275ZM36.375 47.5C34.8187 47.5 33.3563 47.2047 31.9875 46.6141C30.6188 46.0234 29.4281 45.2219 28.4156 44.2094C27.4031 43.1969 26.6016 42.0063 26.0109 40.6375C25.4203 39.2688 25.125 37.8063 25.125 36.25C25.125 34.6937 25.4203 33.2313 26.0109 31.8625C26.6016 30.4938 27.4031 29.3031 28.4156 28.2906C29.4281 27.2781 30.6188 26.4766 31.9875 25.8859C33.3563 25.2953 34.8187 25 36.375 25C37.9313 25 39.3938 25.2953 40.7625 25.8859C42.1313 26.4766 43.3219 27.2781 44.3344 28.2906C45.3469 29.3031 46.1484 30.4938 46.7391 31.8625C47.3297 33.2313 47.625 34.6937 47.625 36.25C47.625 37.8063 47.3297 39.2688 46.7391 40.6375C46.1484 42.0063 45.3469 43.1969 44.3344 44.2094C43.3219 45.2219 42.1313 46.0234 40.7625 46.6141C39.3938 47.2047 37.9313 47.5 36.375 47.5ZM36.375 45.25C38.8875 45.25 41.0156 44.3781 42.7594 42.6344C44.5031 40.8906 45.375 38.7625 45.375 36.25C45.375 33.7375 44.5031 31.6094 42.7594 29.8656C41.0156 28.1219 38.8875 27.25 36.375 27.25C33.8625 27.25 31.7344 28.1219 29.9906 29.8656C28.2469 31.6094 27.375 33.7375 27.375 36.25C27.375 38.7625 28.2469 40.8906 29.9906 42.6344C31.7344 44.3781 33.8625 45.25 36.375 45.25Z" fill="#2F2F2F"/>
<path d="M35.0625 1C36.7194 1 38.0625 2.34315 38.0625 4V21.9101C37.5089 21.8457 36.9458 21.8125 36.375 21.8125C36.1866 21.8125 35.9991 21.8162 35.8125 21.8233V5.5C35.8125 4.25736 34.8051 3.25 33.5625 3.25H10.5C9.25736 3.25 8.25 4.25736 8.25 5.5V36.625C8.25 37.8676 9.25736 38.875 10.5 38.875H22.1759C22.318 39.6483 22.5214 40.4001 22.7814 41.125H9C7.34315 41.125 6 39.7819 6 38.125V4C6 2.34315 7.34315 1 9 1H35.0625Z" fill="#2F2F2F"/>
<path d="M23.4179 29.875C22.8962 30.9334 22.5004 32.0648 22.2499 33.25H20.4375C19.5055 33.25 18.75 32.4945 18.75 31.5625C18.75 30.6305 19.5055 29.875 20.4375 29.875H23.4179Z" fill="#2F2F2F"/>
<path d="M29.5959 23.5C27.9913 24.3549 26.5673 25.5039 25.3954 26.875H20.4375C19.5055 26.875 18.75 26.1195 18.75 25.1875C18.75 24.2555 19.5055 23.5 20.4375 23.5H29.5959Z" fill="#2F2F2F"/>
</svg>
