<svg data-v-137d7eca="" data-v-10af061a="" xmlns="http://www.w3.org/2000/svg" width="18" height="18" viewBox="0 0 18 18" fill="none"><path data-v-137d7eca="" fill-rule="evenodd" clip-rule="evenodd" d="M10.0996 1C10.0996 0.447715 9.65189 0 9.09961 0C8.54733 0 8.09961 0.447715 8.09961 1L8.09961 7.90039L1 7.90039C0.447715 7.90039 0 8.34811 0 8.90039C0 9.45267 0.447715 9.90039 1 9.90039H8.09961L8.09961 17C8.09961 17.5523 8.54732 18 9.09961 18C9.65189 18 10.0996 17.5523 10.0996 17L10.0996 9.90039L17 9.90039C17.5523 9.90039 18 9.45267 18 8.90039C18 8.34811 17.5523 7.90039 17 7.90039H10.0996L10.0996 1Z" fill="#2F2F2F"></path></svg>