<svg width="21" height="21" viewBox="0 0 21 21" fill="none" xmlns="http://www.w3.org/2000/svg">
<path d="M17.5 8.75V6.125C17.5 5.1585 16.7165 4.375 15.75 4.375H5.25C4.2835 4.375 3.5 5.1585 3.5 6.125V8.75M17.5 8.75V16.625C17.5 17.5915 16.7165 18.375 15.75 18.375H5.25C4.2835 18.375 3.5 17.5915 3.5 16.625V8.75M17.5 8.75H3.5M7 2.625V6.125M14 2.625V6.125" stroke="#2F2F2F" stroke-linecap="round"/>
<path d="M14.875 12.25H12.25C11.7668 12.25 11.375 12.6418 11.375 13.125V15.75C11.375 16.2332 11.7668 16.625 12.25 16.625H14.875C15.3582 16.625 15.75 16.2332 15.75 15.75V13.125C15.75 12.6418 15.3582 12.25 14.875 12.25Z" fill="#2F2F2F"/>
</svg>
