<svg width="21" height="21" viewBox="0 0 21 21" fill="none" xmlns="http://www.w3.org/2000/svg">
<path d="M17.5 8.75V6.125C17.5 5.1585 16.7165 4.375 15.75 4.375H5.25C4.2835 4.375 3.5 5.1585 3.5 6.125V8.75M17.5 8.75V16.625C17.5 17.5915 16.7165 18.375 15.75 18.375H5.25C4.2835 18.375 3.5 17.5915 3.5 16.625V8.75M17.5 8.75H3.5M7 2.625V6.125M14 2.625C14 2.625 14 4.75816 14 6.125" stroke="#2F2F2F" stroke-linecap="round"/>
<path d="M8.75 10.5H6.125C5.64175 10.5 5.25 10.8918 5.25 11.375V14C5.25 14.4832 5.64175 14.875 6.125 14.875H8.75C9.23325 14.875 9.625 14.4832 9.625 14V11.375C9.625 10.8918 9.23325 10.5 8.75 10.5Z" fill="#2F2F2F"/>
</svg>
