<svg width="24" height="24" viewBox="0 0 24 24" fill="none" xmlns="http://www.w3.org/2000/svg">
<path d="M18 5L16 2H8L6 5H0V22H24V5H18ZM22 12H17.921C18.502 15.754 15.609 19 12 19C8.388 19 5.499 15.752 6.079 12H2V7H7.07L9.07 4H14.929L16.929 7H22V12ZM12 9C9.757 9 8 10.73 8 12.939C8 15.178 9.794 17 12 17C14.206 17 16 15.178 16 12.939C16 10.73 14.243 9 12 9ZM11.564 12.555C10.932 13.058 10.103 13.055 9.712 12.549C9.322 12.043 9.518 11.225 10.15 10.722C10.782 10.22 11.611 10.223 12.001 10.729C12.392 11.234 12.196 12.052 11.564 12.555Z" fill="black"/>
</svg>
