<svg width="30" height="30" viewBox="0 0 30 30" fill="none" xmlns="http://www.w3.org/2000/svg">
<path d="M15.8504 25.1425L25.3464 15.6465C27.6796 13.3133 28.0239 9.4747 25.8159 7.02264C25.2628 6.40666 24.59 5.90983 23.8385 5.56246C23.0871 5.21509 22.2728 5.02445 21.4453 5.0022C20.6176 4.97995 19.7943 5.12654 19.0253 5.43303C18.2563 5.73951 17.5578 6.19946 16.9724 6.78483L15.1875 8.56964L13.6465 7.02863C11.3133 4.69538 7.4747 4.35114 5.02264 6.55919C4.40666 7.11226 3.90983 7.78505 3.56246 8.53649C3.21509 9.28793 3.02445 10.1023 3.0022 10.9298C2.97995 11.7574 3.12654 12.5808 3.43303 13.3498C3.73951 14.1188 4.19946 14.8173 4.78483 15.4026L14.5246 25.1425C14.7004 25.3182 14.9389 25.417 15.1875 25.417C15.4361 25.417 15.6746 25.3182 15.8504 25.1425Z" stroke="#222222" stroke-width="2" stroke-linecap="round" stroke-linejoin="round"/>
</svg>
