<svg data-v-137d7eca="" data-v-0be60421="" xmlns="http://www.w3.org/2000/svg" width="20" height="20" viewBox="0 0 21 19" fill="none"><path data-v-137d7eca="" fill-rule="evenodd" clip-rule="evenodd" d="M9.80645 18.9835H3.26285C2.53729 18.9835 1.88592 18.68 1.42228 18.2164L1.40666 18.2004C0.95192 17.7378 0.655273 17.093 0.655273 16.3757V6.32709C0.655273 4.87926 1.82971 3.71931 3.26301 3.71931H5.12948L5.31353 2.53319C5.53552 1.10248 6.87392 0.136326 8.29028 0.356096L18.2198 1.89682C19.6362 2.11659 20.6189 3.4429 20.3969 4.87361L18.8561 14.8034C18.6359 16.223 17.2989 17.2008 15.8794 16.9805L15.8496 16.9759C15.5775 18.1248 14.5419 18.9837 13.3117 18.9837H9.82291C9.81742 18.9837 9.81193 18.9836 9.80645 18.9835ZM7.28988 2.83985C7.34152 2.50703 7.65238 2.28105 7.98362 2.33245L17.9132 3.87317C18.2444 3.92457 18.4722 4.23413 18.4205 4.56695L16.8798 14.4968C16.8289 14.8248 16.514 15.0551 16.186 15.0042L15.9194 14.9628V14.0268C15.9304 13.9414 15.9301 13.8554 15.9191 13.7709V6.32709C15.9191 4.87926 14.7447 3.71931 13.3114 3.71931H7.15341L7.28988 2.83985ZM13.9191 11.4773V6.32709C13.9191 5.99029 13.6466 5.71931 13.3114 5.71931H3.26301C2.92781 5.71931 2.65527 5.99029 2.65527 6.32709V15.5691L3.8982 14.3262C4.8077 13.4167 6.22574 13.3201 7.24324 14.0365L10.0161 11.2635C11.0337 10.2459 12.6878 10.2459 13.7053 11.2635L13.9191 11.4773ZM13.9191 14.3058V16.3757C13.9191 16.7077 13.6433 16.9835 13.3114 16.9835H10.2446L8.68465 15.4235L11.4304 12.6777C11.6669 12.4412 12.0546 12.4412 12.2911 12.6777L13.9191 14.3058ZM6.48911 16.0563L6.17315 15.7404C5.93665 15.5039 5.54892 15.5039 5.31243 15.7404L4.06934 16.9835H7.40855L6.55949 16.1344C6.53442 16.1094 6.51096 16.0833 6.48911 16.0563Z" fill="#2f2f2f"></path></svg>