<svg width="30" height="30" viewBox="0 0 30 30" fill="none" xmlns="http://www.w3.org/2000/svg">
<path d="M20.625 6.5625H26.25" stroke="black" stroke-width="2" stroke-linecap="round" stroke-linejoin="round"/>
<path d="M23.4375 3.75V9.375" stroke="black" stroke-width="2" stroke-linecap="round" stroke-linejoin="round"/>
<path d="M3.63281 25.3114C4.78542 23.3164 6.44275 21.6598 8.4383 20.508C10.4339 19.3563 12.6974 18.75 15.0015 18.75C17.3055 18.75 19.569 19.3564 21.5645 20.5081C23.5601 21.6599 25.2174 23.3166 26.3699 25.3116" stroke="black" stroke-width="2" stroke-linecap="round" stroke-linejoin="round"/>
<path d="M22.0372 13.8495C21.5359 15.2031 20.6544 16.3832 19.4987 17.248C18.3429 18.1127 16.9621 18.6255 15.5221 18.7245C14.0819 18.8235 12.6439 18.5046 11.3807 17.8062C10.1175 17.1077 9.08276 16.0595 8.40087 14.7872C7.71898 13.515 7.41892 12.0729 7.53673 10.6342C7.65454 9.1956 8.18523 7.82157 9.06502 6.67721C9.94481 5.53286 11.1363 4.66685 12.4963 4.18323C13.8563 3.69962 15.3271 3.61897 16.7318 3.95096" stroke="black" stroke-width="2" stroke-linecap="round" stroke-linejoin="round"/>
</svg>
