<svg width="46" height="34" viewBox="0 0 46 34" fill="none" xmlns="http://www.w3.org/2000/svg">
<rect width="46" height="34" rx="5" fill="white"/>
<mask id="mask0_2085_2530" style="mask-type:luminance" maskUnits="userSpaceOnUse" x="3" y="10" width="40" height="14">
<path d="M3 10.001H43V23.5801H3V10.001Z" fill="white"/>
</mask>
<g mask="url(#mask0_2085_2530)">
<path d="M42.1857 12.7004L38.2052 22.5113H36.3619L37.6357 19.402L34.5759 12.7007H36.475L38.5086 17.2836L40.3471 12.7007H42.1857V12.7004ZM33.6738 20.2368H31.9095V19.6955C31.3416 20.1679 30.6458 20.4184 29.9331 20.4068C27.9879 20.4068 26.4617 18.6755 26.4617 16.4689C26.4617 14.2623 27.9879 12.531 29.9331 12.531C30.6458 12.5194 31.3416 12.7697 31.9095 13.242V12.7007H33.6738V20.2368ZM30.1776 14.1602C29.0664 14.1602 28.2276 15.1533 28.2276 16.4686C28.2276 17.7842 29.0664 18.7771 30.1776 18.7771C31.2888 18.7771 32.1276 17.7842 32.1276 16.4686C32.1276 15.1533 31.2888 14.1602 30.1776 14.1602ZM18.2905 12.7004H20.0548V13.242C20.6234 12.7699 21.3195 12.5197 22.0326 12.531C23.9779 12.531 25.5024 14.2605 25.5024 16.4689C25.5024 18.6771 23.9779 20.4068 22.0326 20.4068C21.3456 20.4181 20.6737 20.186 20.1167 19.7449V22.5111H18.2905V12.7004ZM19.8381 16.4686C19.8381 17.7842 20.6769 18.7771 21.7881 18.7771C22.8993 18.7771 23.7381 17.7842 23.7381 16.4686C23.7381 15.1533 22.8993 14.1602 21.7881 14.1602C20.6769 14.1602 19.8381 15.1533 19.8381 16.4686ZM15.3807 16.7896C15.3879 17.6862 15.2331 18.5754 14.9252 19.4061C14.6173 20.2367 14.1625 20.9922 13.587 21.629C13.0114 22.2658 12.3266 22.7712 11.572 23.1161C10.8174 23.4611 10.008 23.6387 9.19048 23.6387C8.37296 23.6387 7.56355 23.4611 6.80895 23.1161C6.05435 22.7712 5.36952 22.2658 4.79399 21.629C4.21847 20.9922 3.76364 20.2367 3.45576 19.4061C3.14789 18.5754 2.99307 17.6862 3.00024 16.7896C3.01456 14.9993 3.67305 13.2876 4.83239 12.0272C5.99173 10.7667 7.55806 10.0596 9.19048 10.0596C10.8229 10.0596 12.3892 10.7667 13.5486 12.0272C14.7079 13.2876 15.3664 14.9993 15.3807 16.7896ZM10.484 13.293V17.2411L7.9569 13.293H6.00214V20.2862H7.8981V16.3365L10.4252 20.2862H12.3783V13.293H10.484Z" fill="#03C75A"/>
</g>
</svg>
