<svg xmlns="http://www.w3.org/2000/svg" width="20" height="20" viewBox="0 0 20 20" fill="none">
  <path fill-rule="evenodd" clip-rule="evenodd" d="M13.875 8.4375C13.875 11.4405 11.4405 13.875 8.4375 13.875C5.43445 13.875 3 11.4405 3 8.4375C3 5.43445 5.43445 3 8.4375 3C11.4405 3 13.875 5.43445 13.875 8.4375ZM12.95 14.3502C11.6985 15.3068 10.1344 15.875 8.4375 15.875C4.32988 15.875 1 12.5451 1 8.4375C1 4.32988 4.32988 1 8.4375 1C12.5451 1 15.875 4.32988 15.875 8.4375C15.875 10.1344 15.3068 11.6985 14.3502 12.95C14.3874 12.978 14.4232 13.009 14.4571 13.0429L18.7071 17.2929C19.0976 17.6834 19.0976 18.3166 18.7071 18.7071C18.3166 19.0976 17.6834 19.0976 17.2929 18.7071L13.0429 14.4571C13.009 14.4232 12.978 14.3874 12.95 14.3502Z" fill="black"/>
</svg>