<svg width="50" height="50" viewBox="0 0 50 50" fill="none" xmlns="http://www.w3.org/2000/svg">
<g clip-path="url(#clip0_3907_1516)">
<mask id="mask0_3907_1516" style="mask-type:luminance" maskUnits="userSpaceOnUse" x="0" y="0" width="50" height="50">
<path d="M50 0H0V50H50V0Z" fill="white"/>
</mask>
<g mask="url(#mask0_3907_1516)">
<path d="M4.16699 19.7917V8.33333C4.16699 7.78079 4.38649 7.2509 4.77718 6.86019C5.16789 6.4695 5.69778 6.25 6.25033 6.25H43.7503C44.3028 6.25 44.8328 6.4695 45.2235 6.86019C45.6141 7.2509 45.8337 7.78079 45.8337 8.33333V19.7917C44.4524 19.7917 43.1276 20.3404 42.1507 21.3171C41.1741 22.294 40.6253 23.6187 40.6253 25C40.6253 26.3812 41.1741 27.706 42.1507 28.6829C43.1276 29.6596 44.4524 30.2083 45.8337 30.2083V41.6667C45.8337 42.2192 45.6141 42.7492 45.2235 43.1398C44.8328 43.5304 44.3028 43.75 43.7503 43.75H6.25033C5.69778 43.75 5.16789 43.5304 4.77718 43.1398C4.38649 42.7492 4.16699 42.2192 4.16699 41.6667V30.2083C5.54833 30.2083 6.8731 29.6596 7.84985 28.6829C8.8266 27.706 9.37533 26.3812 9.37533 25C9.37533 23.6187 8.8266 22.294 7.84985 21.3171C6.8731 20.3404 5.54833 19.7917 4.16699 19.7917ZM29.167 10.4167H8.33366V16.6C9.89868 17.3756 11.2159 18.573 12.1368 20.0572C13.0577 21.5415 13.5457 23.2533 13.5457 25C13.5457 26.7467 13.0577 28.4585 12.1368 29.9427C11.2159 31.4271 9.89868 32.6244 8.33366 33.4V39.5833H29.167V10.4167ZM33.3337 10.4167V39.5833H41.667V33.4C40.102 32.6244 38.7847 31.4271 37.8639 29.9427C36.943 28.4585 36.4549 26.7467 36.4549 25C36.4549 23.2533 36.943 21.5415 37.8639 20.0572C38.7847 18.573 40.102 17.3756 41.667 16.6V10.4167H33.3337Z" fill="#AF9744"/>
</g>
</g>
<defs>
<clipPath id="clip0_3907_1516">
<rect width="50" height="50" fill="white"/>
</clipPath>
</defs>
</svg>
