<svg width="24" height="24" viewBox="0 0 24 24" fill="none" xmlns="http://www.w3.org/2000/svg">
<path d="M22 5H18.779C18.9209 4.68549 18.9961 4.34501 19 4C19 2.2 18.319 1 15 1C14.3426 1.07063 13.7166 1.31794 13.1884 1.71566C12.6602 2.11339 12.2495 2.6467 12 3.259C11.7505 2.6467 11.3398 2.11339 10.8116 1.71566C10.2834 1.31794 9.65741 1.07063 9 1C5.681 1 5 2.2 5 4C5.00387 4.34501 5.07912 4.68549 5.221 5H2C1.73478 5 1.48043 5.10536 1.29289 5.29289C1.10536 5.48043 1 5.73478 1 6V10C1 10.2652 1.10536 10.5196 1.29289 10.7071C1.48043 10.8946 1.73478 11 2 11H4V22C4 22.2652 4.10536 22.5196 4.29289 22.7071C4.48043 22.8946 4.73478 23 5 23H19C19.2652 23 19.5196 22.8946 19.7071 22.7071C19.8946 22.5196 20 22.2652 20 22V11H22C22.2652 11 22.5196 10.8946 22.7071 10.7071C22.8946 10.5196 23 10.2652 23 10V6C23 5.73478 22.8946 5.48043 22.7071 5.29289C22.5196 5.10536 22.2652 5 22 5ZM15 3C17 3 17 3.293 17 4C17 4.485 16.3 5 15 5H13.391C13.825 3.965 14.446 3 15 3ZM7 4C7 3.293 7 3 9 3C9.554 3 10.175 3.965 10.609 5H9C7.7 5 7 4.485 7 4ZM6 11H12.758L6 17.757V11ZM11.242 21L18 14.243V21H11.242ZM18 11.415L8.414 21H6V20.585L15.586 11H18V11.415ZM21 9H3V7H21V9Z" fill="#2F2F2F"/>
</svg>
