<svg width="20" height="20" viewBox="0 0 20 20" fill="none" xmlns="http://www.w3.org/2000/svg">
<path fill-rule="evenodd" clip-rule="evenodd" d="M2.78712 1.65639C2.3966 1.26586 1.76343 1.26586 1.37291 1.65639C0.982385 2.04691 0.982386 2.68008 1.37291 3.0706L8.58566 10.2834L1.65627 17.2128C1.26574 17.6033 1.26574 18.2364 1.65627 18.627C2.04679 19.0175 2.67995 19.0175 3.07048 18.627L9.99988 11.6976L16.9293 18.627C17.3198 19.0175 17.9529 19.0175 18.3435 18.627C18.734 18.2364 18.734 17.6033 18.3435 17.2127L11.4141 10.2834L18.6268 3.07062C19.0174 2.6801 19.0174 2.04693 18.6268 1.65641C18.2363 1.26588 17.6031 1.26588 17.2126 1.65641L9.99988 8.86914L2.78712 1.65639Z" fill="black"/>
</svg>
