<svg xmlns="http://www.w3.org/2000/svg" width="20" height="20" viewBox="0 0 20 20" fill="none">
  <path fill-rule="evenodd" clip-rule="evenodd" d="M9 11V16.4722C8.75358 16.23 8.48543 15.8834 8.21278 15.3927C7.61176 14.3108 7.15988 12.783 7.03477 11H9ZM11 11V16.4722C11.2464 16.23 11.5146 15.8834 11.7872 15.3927C12.3882 14.3108 12.8401 12.783 12.9652 11H11ZM12.9652 9H11V3.5278C11.2464 3.77003 11.5146 4.11656 11.7872 4.60732C12.3882 5.68917 12.8401 7.21698 12.9652 9ZM14.9695 11C14.8552 12.8611 14.4256 14.5511 13.7791 15.8933C15.4506 14.8191 16.6354 13.0533 16.9291 11H14.9695ZM16.9291 9H14.9695C14.8552 7.13893 14.4256 5.44889 13.7791 4.10674C15.4506 5.18085 16.6354 6.9467 16.9291 9ZM9 9H7.03477C7.15988 7.21698 7.61176 5.68917 8.21278 4.60732C8.48543 4.11656 8.75357 3.77003 9 3.5278V9ZM5.03052 9C5.14481 7.13893 5.57436 5.44889 6.22091 4.10674C4.54936 5.18086 3.36459 6.9467 3.07089 9H5.03052ZM3.07089 11C3.36459 13.0533 4.54936 14.8191 6.22092 15.8933C5.57437 14.5511 5.14481 12.8611 5.03052 11H3.07089ZM10 1C14.9706 1 19 5.02944 19 10C19 14.9706 14.9706 19 10 19C5.02944 19 1 14.9706 1 10C1 5.02944 5.02944 1 10 1Z" fill="black"></path>
</svg>